<?xml version="1.0" encoding="UTF-8" standalone="no"?>
<!DOCTYPE svg PUBLIC "-//W3C//DTD SVG 1.1//EN"
 "http://www.w3.org/Graphics/SVG/1.1/DTD/svg11.dtd">
<!-- Generated by graphviz version 2.43.0 (0)
 -->
<!-- Title: %3 Pages: 1 -->
<svg width="1471pt" height="620pt"
 viewBox="0.00 0.00 1470.88 620.00" xmlns="http://www.w3.org/2000/svg" xmlns:xlink="http://www.w3.org/1999/xlink">
<g id="graph0" class="graph" transform="scale(1 1) rotate(0) translate(4 616)">
<title>%3</title>
<polygon fill="white" stroke="transparent" points="-4,4 -4,-616 1466.88,-616 1466.88,4 -4,4"/>
<!-- [root] aws_cloudwatch_log_group.cw_log_group -->
<g id="node1" class="node">
<title>[root] aws_cloudwatch_log_group.cw_log_group</title>
<polygon fill="none" stroke="black" points="719.42,-252 460.96,-252 460.96,-216 719.42,-216 719.42,-252"/>
<text text-anchor="middle" x="590.19" y="-229.8" font-family="Times,serif" font-size="14.00">aws_cloudwatch_log_group.cw_log_group</text>
</g>
<!-- [root] provider.aws -->
<g id="node18" class="node">
<title>[root] provider.aws</title>
<polygon fill="none" stroke="black" points="478.19,-108 399.58,-90 478.19,-72 556.8,-90 478.19,-108"/>
<text text-anchor="middle" x="478.19" y="-85.8" font-family="Times,serif" font-size="14.00">provider.aws</text>
</g>
<!-- [root] aws_cloudwatch_log_group.cw_log_group&#45;&gt;[root] provider.aws -->
<g id="edge1" class="edge">
<title>[root] aws_cloudwatch_log_group.cw_log_group&#45;&gt;[root] provider.aws</title>
<path fill="none" stroke="black" d="M577.36,-215.78C563.83,-197.73 541.82,-168.64 522.19,-144 514.01,-133.73 504.75,-122.51 496.84,-113.06"/>
<polygon fill="black" stroke="black" points="499.41,-110.68 490.3,-105.27 494.05,-115.18 499.41,-110.68"/>
</g>
<!-- [root] var.project_name -->
<g id="node23" class="node">
<title>[root] var.project_name</title>
<polygon fill="none" stroke="black" points="1037.49,-180 930.89,-180 930.89,-144 1043.49,-144 1043.49,-174 1037.49,-180"/>
<polyline fill="none" stroke="black" points="1037.49,-180 1037.49,-174 "/>
<polyline fill="none" stroke="black" points="1043.49,-174 1037.49,-174 "/>
<text text-anchor="middle" x="987.19" y="-157.8" font-family="Times,serif" font-size="14.00">var.project_name</text>
</g>
<!-- [root] aws_cloudwatch_log_group.cw_log_group&#45;&gt;[root] var.project_name -->
<g id="edge2" class="edge">
<title>[root] aws_cloudwatch_log_group.cw_log_group&#45;&gt;[root] var.project_name</title>
<path fill="none" stroke="black" d="M715.27,-215.98C775.01,-207.13 847.67,-195.34 920.71,-180.22"/>
<polygon fill="black" stroke="black" points="921.47,-183.63 930.55,-178.16 920.04,-176.78 921.47,-183.63"/>
</g>
<!-- [root] aws_iam_instance_profile.instance_profile -->
<g id="node2" class="node">
<title>[root] aws_iam_instance_profile.instance_profile</title>
<polygon fill="none" stroke="black" points="920.8,-324 665.58,-324 665.58,-288 920.8,-288 920.8,-324"/>
<text text-anchor="middle" x="793.19" y="-301.8" font-family="Times,serif" font-size="14.00">aws_iam_instance_profile.instance_profile</text>
</g>
<!-- [root] aws_iam_role.cw_log_iam_role -->
<g id="node3" class="node">
<title>[root] aws_iam_role.cw_log_iam_role</title>
<polygon fill="none" stroke="black" points="977.19,-252 781.19,-252 781.19,-216 977.19,-216 977.19,-252"/>
<text text-anchor="middle" x="879.19" y="-229.8" font-family="Times,serif" font-size="14.00">aws_iam_role.cw_log_iam_role</text>
</g>
<!-- [root] aws_iam_instance_profile.instance_profile&#45;&gt;[root] aws_iam_role.cw_log_iam_role -->
<g id="edge3" class="edge">
<title>[root] aws_iam_instance_profile.instance_profile&#45;&gt;[root] aws_iam_role.cw_log_iam_role</title>
<path fill="none" stroke="black" d="M814.45,-287.7C825.28,-278.88 838.61,-268.03 850.35,-258.47"/>
<polygon fill="black" stroke="black" points="852.63,-261.13 858.18,-252.1 848.21,-255.7 852.63,-261.13"/>
</g>
<!-- [root] data.aws_iam_policy_document.cw_log_iam_trust_policy -->
<g id="node11" class="node">
<title>[root] data.aws_iam_policy_document.cw_log_iam_trust_policy</title>
<polygon fill="none" stroke="black" points="913.06,-180 569.32,-180 569.32,-144 913.06,-144 913.06,-180"/>
<text text-anchor="middle" x="741.19" y="-157.8" font-family="Times,serif" font-size="14.00">data.aws_iam_policy_document.cw_log_iam_trust_policy</text>
</g>
<!-- [root] aws_iam_role.cw_log_iam_role&#45;&gt;[root] data.aws_iam_policy_document.cw_log_iam_trust_policy -->
<g id="edge4" class="edge">
<title>[root] aws_iam_role.cw_log_iam_role&#45;&gt;[root] data.aws_iam_policy_document.cw_log_iam_trust_policy</title>
<path fill="none" stroke="black" d="M845.43,-215.88C826.97,-206.51 803.91,-194.81 784.17,-184.8"/>
<polygon fill="black" stroke="black" points="785.58,-181.59 775.08,-180.19 782.41,-187.83 785.58,-181.59"/>
</g>
<!-- [root] aws_iam_role.cw_log_iam_role&#45;&gt;[root] var.project_name -->
<g id="edge5" class="edge">
<title>[root] aws_iam_role.cw_log_iam_role&#45;&gt;[root] var.project_name</title>
<path fill="none" stroke="black" d="M905.61,-215.88C919.6,-206.81 936.97,-195.55 952.08,-185.76"/>
<polygon fill="black" stroke="black" points="954.18,-188.57 960.67,-180.19 950.37,-182.69 954.18,-188.57"/>
</g>
<!-- [root] aws_iam_role_policy.attach_cw_log_iam_policy_to_role -->
<g id="node4" class="node">
<title>[root] aws_iam_role_policy.attach_cw_log_iam_policy_to_role</title>
<polygon fill="none" stroke="black" points="687.08,-396 349.3,-396 349.3,-360 687.08,-360 687.08,-396"/>
<text text-anchor="middle" x="518.19" y="-373.8" font-family="Times,serif" font-size="14.00">aws_iam_role_policy.attach_cw_log_iam_policy_to_role</text>
</g>
<!-- [root] aws_iam_role_policy.attach_cw_log_iam_policy_to_role&#45;&gt;[root] aws_iam_role.cw_log_iam_role -->
<g id="edge6" class="edge">
<title>[root] aws_iam_role_policy.attach_cw_log_iam_policy_to_role&#45;&gt;[root] aws_iam_role.cw_log_iam_role</title>
<path fill="none" stroke="black" d="M686.96,-360.39C797,-348.73 921.77,-333.57 930.19,-324 947.5,-304.32 928.05,-277.85 908.38,-258.9"/>
<polygon fill="black" stroke="black" points="910.64,-256.22 900.91,-252.04 905.9,-261.38 910.64,-256.22"/>
</g>
<!-- [root] data.aws_iam_policy_document.cw_log_permissions_policy -->
<g id="node12" class="node">
<title>[root] data.aws_iam_policy_document.cw_log_permissions_policy</title>
<polygon fill="none" stroke="black" points="609.07,-324 251.31,-324 251.31,-288 609.07,-288 609.07,-324"/>
<text text-anchor="middle" x="430.19" y="-301.8" font-family="Times,serif" font-size="14.00">data.aws_iam_policy_document.cw_log_permissions_policy</text>
</g>
<!-- [root] aws_iam_role_policy.attach_cw_log_iam_policy_to_role&#45;&gt;[root] data.aws_iam_policy_document.cw_log_permissions_policy -->
<g id="edge7" class="edge">
<title>[root] aws_iam_role_policy.attach_cw_log_iam_policy_to_role&#45;&gt;[root] data.aws_iam_policy_document.cw_log_permissions_policy</title>
<path fill="none" stroke="black" d="M496.44,-359.7C485.35,-350.88 471.72,-340.03 459.7,-330.47"/>
<polygon fill="black" stroke="black" points="461.7,-327.59 451.69,-324.1 457.34,-333.07 461.7,-327.59"/>
</g>
<!-- [root] aws_instance.nodejs_instance -->
<g id="node5" class="node">
<title>[root] aws_instance.nodejs_instance</title>
<polygon fill="none" stroke="black" points="331.75,-396 148.63,-396 148.63,-360 331.75,-360 331.75,-396"/>
<text text-anchor="middle" x="240.19" y="-373.8" font-family="Times,serif" font-size="14.00">aws_instance.nodejs_instance</text>
</g>
<!-- [root] aws_instance.nodejs_instance&#45;&gt;[root] aws_cloudwatch_log_group.cw_log_group -->
<g id="edge8" class="edge">
<title>[root] aws_instance.nodejs_instance&#45;&gt;[root] aws_cloudwatch_log_group.cw_log_group</title>
<path fill="none" stroke="black" d="M331.99,-361.25C334.75,-360.82 337.49,-360.4 340.19,-360 401.8,-350.78 577.07,-370.79 618.19,-324 633.77,-306.27 622.55,-279.9 609.98,-260.46"/>
<polygon fill="black" stroke="black" points="612.76,-258.33 604.21,-252.07 607,-262.29 612.76,-258.33"/>
</g>
<!-- [root] aws_instance.nodejs_instance&#45;&gt;[root] aws_iam_instance_profile.instance_profile -->
<g id="edge9" class="edge">
<title>[root] aws_instance.nodejs_instance&#45;&gt;[root] aws_iam_instance_profile.instance_profile</title>
<path fill="none" stroke="black" d="M331.98,-361.2C334.75,-360.79 337.49,-360.39 340.19,-360 477.94,-340.33 513,-340.27 651.19,-324 652.51,-323.84 653.83,-323.69 655.16,-323.53"/>
<polygon fill="black" stroke="black" points="655.95,-326.96 665.47,-322.31 655.13,-320.01 655.95,-326.96"/>
</g>
<!-- [root] aws_security_group.nodejs_sg -->
<g id="node6" class="node">
<title>[root] aws_security_group.nodejs_sg</title>
<polygon fill="none" stroke="black" points="1165.44,-324 976.94,-324 976.94,-288 1165.44,-288 1165.44,-324"/>
<text text-anchor="middle" x="1071.19" y="-301.8" font-family="Times,serif" font-size="14.00">aws_security_group.nodejs_sg</text>
</g>
<!-- [root] aws_instance.nodejs_instance&#45;&gt;[root] aws_security_group.nodejs_sg -->
<g id="edge10" class="edge">
<title>[root] aws_instance.nodejs_instance&#45;&gt;[root] aws_security_group.nodejs_sg</title>
<path fill="none" stroke="black" d="M331.95,-361.01C334.73,-360.65 337.48,-360.31 340.19,-360 601.17,-329.94 668.55,-347.73 930.19,-324 941.99,-322.93 954.32,-321.66 966.58,-320.31"/>
<polygon fill="black" stroke="black" points="967.3,-323.75 976.84,-319.16 966.52,-316.8 967.3,-323.75"/>
</g>
<!-- [root] data.aws_region.current -->
<g id="node13" class="node">
<title>[root] data.aws_region.current</title>
<polygon fill="none" stroke="black" points="366.69,-252 215.69,-252 215.69,-216 366.69,-216 366.69,-252"/>
<text text-anchor="middle" x="291.19" y="-229.8" font-family="Times,serif" font-size="14.00">data.aws_region.current</text>
</g>
<!-- [root] aws_instance.nodejs_instance&#45;&gt;[root] data.aws_region.current -->
<g id="edge11" class="edge">
<title>[root] aws_instance.nodejs_instance&#45;&gt;[root] data.aws_region.current</title>
<path fill="none" stroke="black" d="M237.1,-359.88C234.54,-341.41 232.69,-311.5 242.19,-288 246.51,-277.33 254.04,-267.49 261.92,-259.26"/>
<polygon fill="black" stroke="black" points="264.46,-261.67 269.17,-252.18 259.57,-256.66 264.46,-261.67"/>
</g>
<!-- [root] data.aws_ssm_parameter.amzn2_ami -->
<g id="node14" class="node">
<title>[root] data.aws_ssm_parameter.amzn2_ami</title>
<polygon fill="none" stroke="black" points="224.57,-180 -0.19,-180 -0.19,-144 224.57,-144 224.57,-180"/>
<text text-anchor="middle" x="112.19" y="-157.8" font-family="Times,serif" font-size="14.00">data.aws_ssm_parameter.amzn2_ami</text>
</g>
<!-- [root] aws_instance.nodejs_instance&#45;&gt;[root] data.aws_ssm_parameter.amzn2_ami -->
<g id="edge12" class="edge">
<title>[root] aws_instance.nodejs_instance&#45;&gt;[root] data.aws_ssm_parameter.amzn2_ami</title>
<path fill="none" stroke="black" d="M148.57,-363.18C126.59,-355.33 105.62,-343.08 92.19,-324 63.93,-283.86 83.42,-223.75 98.74,-189.46"/>
<polygon fill="black" stroke="black" points="102.05,-190.65 103.11,-180.11 95.71,-187.69 102.05,-190.65"/>
</g>
<!-- [root] var.key_name -->
<g id="node22" class="node">
<title>[root] var.key_name</title>
<polygon fill="none" stroke="black" points="189.33,-324 101.05,-324 101.05,-288 195.33,-288 195.33,-318 189.33,-324"/>
<polyline fill="none" stroke="black" points="189.33,-324 189.33,-318 "/>
<polyline fill="none" stroke="black" points="195.33,-318 189.33,-318 "/>
<text text-anchor="middle" x="148.19" y="-301.8" font-family="Times,serif" font-size="14.00">var.key_name</text>
</g>
<!-- [root] aws_instance.nodejs_instance&#45;&gt;[root] var.key_name -->
<g id="edge13" class="edge">
<title>[root] aws_instance.nodejs_instance&#45;&gt;[root] var.key_name</title>
<path fill="none" stroke="black" d="M217.45,-359.7C205.75,-350.8 191.33,-339.82 178.68,-330.2"/>
<polygon fill="black" stroke="black" points="180.75,-327.37 170.67,-324.1 176.51,-332.94 180.75,-327.37"/>
</g>
<!-- [root] aws_security_group.nodejs_sg&#45;&gt;[root] provider.aws -->
<g id="edge14" class="edge">
<title>[root] aws_security_group.nodejs_sg&#45;&gt;[root] provider.aws</title>
<path fill="none" stroke="black" d="M1075.27,-287.95C1082.04,-254.92 1091.29,-182.12 1052.19,-144 1017.4,-110.08 705.03,-97.12 556.28,-92.84"/>
<polygon fill="black" stroke="black" points="555.95,-89.33 545.86,-92.55 555.75,-96.33 555.95,-89.33"/>
</g>
<!-- [root] aws_security_group.nodejs_sg&#45;&gt;[root] var.project_name -->
<g id="edge15" class="edge">
<title>[root] aws_security_group.nodejs_sg&#45;&gt;[root] var.project_name</title>
<path fill="none" stroke="black" d="M1061.06,-287.87C1046.49,-263.24 1019.51,-217.64 1002.5,-188.88"/>
<polygon fill="black" stroke="black" points="1005.46,-187.01 997.36,-180.19 999.44,-190.58 1005.46,-187.01"/>
</g>
<!-- [root] var.project_owner -->
<g id="node24" class="node">
<title>[root] var.project_owner</title>
<polygon fill="none" stroke="black" points="1211.16,-252 1099.22,-252 1099.22,-216 1217.16,-216 1217.16,-246 1211.16,-252"/>
<polyline fill="none" stroke="black" points="1211.16,-252 1211.16,-246 "/>
<polyline fill="none" stroke="black" points="1217.16,-246 1211.16,-246 "/>
<text text-anchor="middle" x="1158.19" y="-229.8" font-family="Times,serif" font-size="14.00">var.project_owner</text>
</g>
<!-- [root] aws_security_group.nodejs_sg&#45;&gt;[root] var.project_owner -->
<g id="edge16" class="edge">
<title>[root] aws_security_group.nodejs_sg&#45;&gt;[root] var.project_owner</title>
<path fill="none" stroke="black" d="M1092.7,-287.7C1103.65,-278.88 1117.14,-268.03 1129.01,-258.47"/>
<polygon fill="black" stroke="black" points="1131.33,-261.1 1136.93,-252.1 1126.95,-255.65 1131.33,-261.1"/>
</g>
<!-- [root] aws_security_group_rule.allow_all_egress -->
<g id="node7" class="node">
<title>[root] aws_security_group_rule.allow_all_egress</title>
<polygon fill="none" stroke="black" points="1198.79,-396 943.59,-396 943.59,-360 1198.79,-360 1198.79,-396"/>
<text text-anchor="middle" x="1071.19" y="-373.8" font-family="Times,serif" font-size="14.00">aws_security_group_rule.allow_all_egress</text>
</g>
<!-- [root] aws_security_group_rule.allow_all_egress&#45;&gt;[root] aws_security_group.nodejs_sg -->
<g id="edge17" class="edge">
<title>[root] aws_security_group_rule.allow_all_egress&#45;&gt;[root] aws_security_group.nodejs_sg</title>
<path fill="none" stroke="black" d="M1071.19,-359.7C1071.19,-351.98 1071.19,-342.71 1071.19,-334.11"/>
<polygon fill="black" stroke="black" points="1074.69,-334.1 1071.19,-324.1 1067.69,-334.1 1074.69,-334.1"/>
</g>
<!-- [root] aws_security_group_rule.allow_http -->
<g id="node8" class="node">
<title>[root] aws_security_group_rule.allow_http</title>
<polygon fill="none" stroke="black" points="925.59,-396 704.79,-396 704.79,-360 925.59,-360 925.59,-396"/>
<text text-anchor="middle" x="815.19" y="-373.8" font-family="Times,serif" font-size="14.00">aws_security_group_rule.allow_http</text>
</g>
<!-- [root] aws_security_group_rule.allow_http&#45;&gt;[root] aws_security_group.nodejs_sg -->
<g id="edge18" class="edge">
<title>[root] aws_security_group_rule.allow_http&#45;&gt;[root] aws_security_group.nodejs_sg</title>
<path fill="none" stroke="black" d="M877.49,-359.97C914.03,-349.97 960.38,-337.3 998.58,-326.85"/>
<polygon fill="black" stroke="black" points="999.89,-330.12 1008.61,-324.11 998.04,-323.37 999.89,-330.12"/>
</g>
<!-- [root] aws_security_group_rule.allow_ssh -->
<g id="node9" class="node">
<title>[root] aws_security_group_rule.allow_ssh</title>
<polygon fill="none" stroke="black" points="1433.71,-396 1216.67,-396 1216.67,-360 1433.71,-360 1433.71,-396"/>
<text text-anchor="middle" x="1325.19" y="-373.8" font-family="Times,serif" font-size="14.00">aws_security_group_rule.allow_ssh</text>
</g>
<!-- [root] aws_security_group_rule.allow_ssh&#45;&gt;[root] aws_security_group.nodejs_sg -->
<g id="edge19" class="edge">
<title>[root] aws_security_group_rule.allow_ssh&#45;&gt;[root] aws_security_group.nodejs_sg</title>
<path fill="none" stroke="black" d="M1263.38,-359.97C1227.12,-349.97 1181.13,-337.3 1143.23,-326.85"/>
<polygon fill="black" stroke="black" points="1143.85,-323.39 1133.28,-324.11 1141.99,-330.14 1143.85,-323.39"/>
</g>
<!-- [root] var.allow_ssh -->
<g id="node19" class="node">
<title>[root] var.allow_ssh</title>
<polygon fill="none" stroke="black" points="1317.3,-324 1231.08,-324 1231.08,-288 1323.3,-288 1323.3,-318 1317.3,-324"/>
<polyline fill="none" stroke="black" points="1317.3,-324 1317.3,-318 "/>
<polyline fill="none" stroke="black" points="1323.3,-318 1317.3,-318 "/>
<text text-anchor="middle" x="1277.19" y="-301.8" font-family="Times,serif" font-size="14.00">var.allow_ssh</text>
</g>
<!-- [root] aws_security_group_rule.allow_ssh&#45;&gt;[root] var.allow_ssh -->
<g id="edge20" class="edge">
<title>[root] aws_security_group_rule.allow_ssh&#45;&gt;[root] var.allow_ssh</title>
<path fill="none" stroke="black" d="M1313.32,-359.7C1307.69,-351.47 1300.84,-341.48 1294.62,-332.42"/>
<polygon fill="black" stroke="black" points="1297.46,-330.37 1288.92,-324.1 1291.69,-334.33 1297.46,-330.37"/>
</g>
<!-- [root] var.ssh_cidr_block -->
<g id="node26" class="node">
<title>[root] var.ssh_cidr_block</title>
<polygon fill="none" stroke="black" points="1457.07,-324 1341.31,-324 1341.31,-288 1463.07,-288 1463.07,-318 1457.07,-324"/>
<polyline fill="none" stroke="black" points="1457.07,-324 1457.07,-318 "/>
<polyline fill="none" stroke="black" points="1463.07,-318 1457.07,-318 "/>
<text text-anchor="middle" x="1402.19" y="-301.8" font-family="Times,serif" font-size="14.00">var.ssh_cidr_block</text>
</g>
<!-- [root] aws_security_group_rule.allow_ssh&#45;&gt;[root] var.ssh_cidr_block -->
<g id="edge21" class="edge">
<title>[root] aws_security_group_rule.allow_ssh&#45;&gt;[root] var.ssh_cidr_block</title>
<path fill="none" stroke="black" d="M1344.22,-359.7C1353.73,-351.05 1365.4,-340.45 1375.76,-331.03"/>
<polygon fill="black" stroke="black" points="1378.33,-333.42 1383.38,-324.1 1373.62,-328.24 1378.33,-333.42"/>
</g>
<!-- [root] data.aws_caller_identity.current -->
<g id="node10" class="node">
<title>[root] data.aws_caller_identity.current</title>
<polygon fill="none" stroke="black" points="513.37,-180 319.01,-180 319.01,-144 513.37,-144 513.37,-180"/>
<text text-anchor="middle" x="416.19" y="-157.8" font-family="Times,serif" font-size="14.00">data.aws_caller_identity.current</text>
</g>
<!-- [root] data.aws_caller_identity.current&#45;&gt;[root] provider.aws -->
<g id="edge22" class="edge">
<title>[root] data.aws_caller_identity.current&#45;&gt;[root] provider.aws</title>
<path fill="none" stroke="black" d="M431.52,-143.7C439.78,-134.37 450.06,-122.76 458.86,-112.82"/>
<polygon fill="black" stroke="black" points="461.53,-115.09 465.54,-105.28 456.29,-110.44 461.53,-115.09"/>
</g>
<!-- [root] data.aws_iam_policy_document.cw_log_iam_trust_policy&#45;&gt;[root] provider.aws -->
<g id="edge23" class="edge">
<title>[root] data.aws_iam_policy_document.cw_log_iam_trust_policy&#45;&gt;[root] provider.aws</title>
<path fill="none" stroke="black" d="M677.19,-143.97C629.19,-131.19 564.73,-114.03 522.35,-102.75"/>
<polygon fill="black" stroke="black" points="523.17,-99.35 512.6,-100.16 521.37,-106.11 523.17,-99.35"/>
</g>
<!-- [root] data.aws_iam_policy_document.cw_log_permissions_policy&#45;&gt;[root] aws_cloudwatch_log_group.cw_log_group -->
<g id="edge24" class="edge">
<title>[root] data.aws_iam_policy_document.cw_log_permissions_policy&#45;&gt;[root] aws_cloudwatch_log_group.cw_log_group</title>
<path fill="none" stroke="black" d="M469.33,-287.88C491.2,-278.31 518.65,-266.3 541.85,-256.15"/>
<polygon fill="black" stroke="black" points="543.42,-259.28 551.18,-252.07 540.61,-252.87 543.42,-259.28"/>
</g>
<!-- [root] data.aws_iam_policy_document.cw_log_permissions_policy&#45;&gt;[root] data.aws_caller_identity.current -->
<g id="edge25" class="edge">
<title>[root] data.aws_iam_policy_document.cw_log_permissions_policy&#45;&gt;[root] data.aws_caller_identity.current</title>
<path fill="none" stroke="black" d="M428.5,-287.87C426.12,-263.67 421.73,-219.21 418.89,-190.39"/>
<polygon fill="black" stroke="black" points="422.35,-189.8 417.88,-180.19 415.38,-190.48 422.35,-189.8"/>
</g>
<!-- [root] data.aws_iam_policy_document.cw_log_permissions_policy&#45;&gt;[root] data.aws_region.current -->
<g id="edge26" class="edge">
<title>[root] data.aws_iam_policy_document.cw_log_permissions_policy&#45;&gt;[root] data.aws_region.current</title>
<path fill="none" stroke="black" d="M396.19,-287.88C377.59,-278.51 354.36,-266.81 334.48,-256.8"/>
<polygon fill="black" stroke="black" points="335.83,-253.56 325.32,-252.19 332.68,-259.81 335.83,-253.56"/>
</g>
<!-- [root] data.aws_region.current&#45;&gt;[root] provider.aws -->
<g id="edge27" class="edge">
<title>[root] data.aws_region.current&#45;&gt;[root] provider.aws</title>
<path fill="none" stroke="black" d="M290.06,-216C289.7,-196.22 292.23,-163.76 310.19,-144 335.56,-116.09 375.48,-102.77 410.03,-96.46"/>
<polygon fill="black" stroke="black" points="410.8,-99.88 420.09,-94.79 409.65,-92.98 410.8,-99.88"/>
</g>
<!-- [root] data.aws_ssm_parameter.amzn2_ami&#45;&gt;[root] provider.aws -->
<g id="edge28" class="edge">
<title>[root] data.aws_ssm_parameter.amzn2_ami&#45;&gt;[root] provider.aws</title>
<path fill="none" stroke="black" d="M201.26,-143.97C272.32,-130.37 369.31,-111.82 427.63,-100.67"/>
<polygon fill="black" stroke="black" points="428.54,-104.06 437.71,-98.74 427.23,-97.18 428.54,-104.06"/>
</g>
<!-- [root] output.instance_id -->
<g id="node15" class="node">
<title>[root] output.instance_id</title>
<polygon fill="none" stroke="black" points="262.73,-468 149.65,-468 149.65,-432 268.73,-432 268.73,-462 262.73,-468"/>
<polyline fill="none" stroke="black" points="262.73,-468 262.73,-462 "/>
<polyline fill="none" stroke="black" points="268.73,-462 262.73,-462 "/>
<text text-anchor="middle" x="209.19" y="-445.8" font-family="Times,serif" font-size="14.00">output.instance_id</text>
</g>
<!-- [root] output.instance_id&#45;&gt;[root] aws_instance.nodejs_instance -->
<g id="edge36" class="edge">
<title>[root] output.instance_id&#45;&gt;[root] aws_instance.nodejs_instance</title>
<path fill="none" stroke="black" d="M216.85,-431.7C220.38,-423.73 224.65,-414.1 228.56,-405.26"/>
<polygon fill="black" stroke="black" points="231.77,-406.67 232.62,-396.1 225.37,-403.83 231.77,-406.67"/>
</g>
<!-- [root] output.instance_public_dns -->
<g id="node16" class="node">
<title>[root] output.instance_public_dns</title>
<polygon fill="none" stroke="black" points="449.78,-468 286.6,-468 286.6,-432 455.78,-432 455.78,-462 449.78,-468"/>
<polyline fill="none" stroke="black" points="449.78,-468 449.78,-462 "/>
<polyline fill="none" stroke="black" points="455.78,-462 449.78,-462 "/>
<text text-anchor="middle" x="371.19" y="-445.8" font-family="Times,serif" font-size="14.00">output.instance_public_dns</text>
</g>
<!-- [root] output.instance_public_dns&#45;&gt;[root] aws_instance.nodejs_instance -->
<g id="edge37" class="edge">
<title>[root] output.instance_public_dns&#45;&gt;[root] aws_instance.nodejs_instance</title>
<path fill="none" stroke="black" d="M339.14,-431.88C321.7,-422.55 299.92,-410.92 281.25,-400.94"/>
<polygon fill="black" stroke="black" points="282.83,-397.82 272.36,-396.19 279.53,-403.99 282.83,-397.82"/>
</g>
<!-- [root] output.instance_public_ipv4 -->
<g id="node17" class="node">
<title>[root] output.instance_public_ipv4</title>
<polygon fill="none" stroke="black" points="642.72,-468 473.66,-468 473.66,-432 648.72,-432 648.72,-462 642.72,-468"/>
<polyline fill="none" stroke="black" points="642.72,-468 642.72,-462 "/>
<polyline fill="none" stroke="black" points="648.72,-462 642.72,-462 "/>
<text text-anchor="middle" x="561.19" y="-445.8" font-family="Times,serif" font-size="14.00">output.instance_public_ipv4</text>
</g>
<!-- [root] output.instance_public_ipv4&#45;&gt;[root] aws_instance.nodejs_instance -->
<g id="edge38" class="edge">
<title>[root] output.instance_public_ipv4&#45;&gt;[root] aws_instance.nodejs_instance</title>
<path fill="none" stroke="black" d="M483.07,-431.97C436.28,-421.76 376.68,-408.76 328.22,-398.2"/>
<polygon fill="black" stroke="black" points="328.89,-394.76 318.38,-396.05 327.4,-401.6 328.89,-394.76"/>
</g>
<!-- [root] var.aws_profile -->
<g id="node20" class="node">
<title>[root] var.aws_profile</title>
<polygon fill="none" stroke="black" points="403.12,-36 307.26,-36 307.26,0 409.12,0 409.12,-30 403.12,-36"/>
<polyline fill="none" stroke="black" points="403.12,-36 403.12,-30 "/>
<polyline fill="none" stroke="black" points="409.12,-30 403.12,-30 "/>
<text text-anchor="middle" x="358.19" y="-13.8" font-family="Times,serif" font-size="14.00">var.aws_profile</text>
</g>
<!-- [root] provider.aws&#45;&gt;[root] var.aws_profile -->
<g id="edge44" class="edge">
<title>[root] provider.aws&#45;&gt;[root] var.aws_profile</title>
<path fill="none" stroke="black" d="M457.01,-76.65C440.32,-66.91 416.62,-53.08 396.6,-41.41"/>
<polygon fill="black" stroke="black" points="398.11,-38.23 387.71,-36.22 394.58,-44.28 398.11,-38.23"/>
</g>
<!-- [root] var.aws_region -->
<g id="node21" class="node">
<title>[root] var.aws_region</title>
<polygon fill="none" stroke="black" points="522.84,-36 427.54,-36 427.54,0 528.84,0 528.84,-30 522.84,-36"/>
<polyline fill="none" stroke="black" points="522.84,-36 522.84,-30 "/>
<polyline fill="none" stroke="black" points="528.84,-30 522.84,-30 "/>
<text text-anchor="middle" x="478.19" y="-13.8" font-family="Times,serif" font-size="14.00">var.aws_region</text>
</g>
<!-- [root] provider.aws&#45;&gt;[root] var.aws_region -->
<g id="edge45" class="edge">
<title>[root] provider.aws&#45;&gt;[root] var.aws_region</title>
<path fill="none" stroke="black" d="M478.19,-71.7C478.19,-63.98 478.19,-54.71 478.19,-46.11"/>
<polygon fill="black" stroke="black" points="481.69,-46.1 478.19,-36.1 474.69,-46.1 481.69,-46.1"/>
</g>
<!-- [root] var.shared_credentials_file -->
<g id="node25" class="node">
<title>[root] var.shared_credentials_file</title>
<polygon fill="none" stroke="black" points="705.86,-36 546.52,-36 546.52,0 711.86,0 711.86,-30 705.86,-36"/>
<polyline fill="none" stroke="black" points="705.86,-36 705.86,-30 "/>
<polyline fill="none" stroke="black" points="711.86,-30 705.86,-30 "/>
<text text-anchor="middle" x="629.19" y="-13.8" font-family="Times,serif" font-size="14.00">var.shared_credentials_file</text>
</g>
<!-- [root] provider.aws&#45;&gt;[root] var.shared_credentials_file -->
<g id="edge46" class="edge">
<title>[root] provider.aws&#45;&gt;[root] var.shared_credentials_file</title>
<path fill="none" stroke="black" d="M502.79,-77.6C524.54,-67.51 556.85,-52.54 583.35,-40.25"/>
<polygon fill="black" stroke="black" points="584.86,-43.41 592.46,-36.03 581.92,-37.06 584.86,-43.41"/>
</g>
<!-- [root] meta.count&#45;boundary (EachMode fixup) -->
<g id="node27" class="node">
<title>[root] meta.count&#45;boundary (EachMode fixup)</title>
<ellipse fill="none" stroke="black" cx="672.19" cy="-522" rx="174.79" ry="18"/>
<text text-anchor="middle" x="672.19" y="-517.8" font-family="Times,serif" font-size="14.00">[root] meta.count&#45;boundary (EachMode fixup)</text>
</g>
<!-- [root] meta.count&#45;boundary (EachMode fixup)&#45;&gt;[root] aws_iam_role_policy.attach_cw_log_iam_policy_to_role -->
<g id="edge29" class="edge">
<title>[root] meta.count&#45;boundary (EachMode fixup)&#45;&gt;[root] aws_iam_role_policy.attach_cw_log_iam_policy_to_role</title>
<path fill="none" stroke="black" d="M674.24,-503.91C675.61,-484.35 674.76,-452.39 658.19,-432 646.78,-417.96 631.22,-407.64 614.62,-400.05"/>
<polygon fill="black" stroke="black" points="615.88,-396.78 605.31,-396.11 613.15,-403.23 615.88,-396.78"/>
</g>
<!-- [root] meta.count&#45;boundary (EachMode fixup)&#45;&gt;[root] aws_security_group_rule.allow_all_egress -->
<g id="edge30" class="edge">
<title>[root] meta.count&#45;boundary (EachMode fixup)&#45;&gt;[root] aws_security_group_rule.allow_all_egress</title>
<path fill="none" stroke="black" d="M827.92,-513.85C879.88,-506.54 936.62,-492.92 984.19,-468 1012.96,-452.93 1037.93,-424.88 1053.65,-404.28"/>
<polygon fill="black" stroke="black" points="1056.47,-406.37 1059.61,-396.25 1050.84,-402.2 1056.47,-406.37"/>
</g>
<!-- [root] meta.count&#45;boundary (EachMode fixup)&#45;&gt;[root] aws_security_group_rule.allow_http -->
<g id="edge31" class="edge">
<title>[root] meta.count&#45;boundary (EachMode fixup)&#45;&gt;[root] aws_security_group_rule.allow_http</title>
<path fill="none" stroke="black" d="M688.09,-504.01C705.16,-485.9 733.19,-456.53 758.19,-432 768.01,-422.37 779.03,-412.02 788.75,-403.04"/>
<polygon fill="black" stroke="black" points="791.22,-405.52 796.21,-396.18 786.48,-400.37 791.22,-405.52"/>
</g>
<!-- [root] meta.count&#45;boundary (EachMode fixup)&#45;&gt;[root] aws_security_group_rule.allow_ssh -->
<g id="edge32" class="edge">
<title>[root] meta.count&#45;boundary (EachMode fixup)&#45;&gt;[root] aws_security_group_rule.allow_ssh</title>
<path fill="none" stroke="black" d="M782.59,-508C851.36,-498.96 941.42,-485.41 1020.19,-468 1106.16,-449 1203.49,-419.09 1264.6,-399.27"/>
<polygon fill="black" stroke="black" points="1266.04,-402.48 1274.46,-396.05 1263.87,-395.83 1266.04,-402.48"/>
</g>
<!-- [root] meta.count&#45;boundary (EachMode fixup)&#45;&gt;[root] output.instance_id -->
<g id="edge33" class="edge">
<title>[root] meta.count&#45;boundary (EachMode fixup)&#45;&gt;[root] output.instance_id</title>
<path fill="none" stroke="black" d="M554.54,-508.7C478.32,-499.9 376.78,-486.64 278.88,-468.22"/>
<polygon fill="black" stroke="black" points="279.29,-464.74 268.81,-466.3 277.98,-471.61 279.29,-464.74"/>
</g>
<!-- [root] meta.count&#45;boundary (EachMode fixup)&#45;&gt;[root] output.instance_public_dns -->
<g id="edge34" class="edge">
<title>[root] meta.count&#45;boundary (EachMode fixup)&#45;&gt;[root] output.instance_public_dns</title>
<path fill="none" stroke="black" d="M605.01,-505.38C560.53,-495.03 501.87,-481.39 454.43,-470.36"/>
<polygon fill="black" stroke="black" points="455.02,-466.9 444.48,-468.04 453.43,-473.72 455.02,-466.9"/>
</g>
<!-- [root] meta.count&#45;boundary (EachMode fixup)&#45;&gt;[root] output.instance_public_ipv4 -->
<g id="edge35" class="edge">
<title>[root] meta.count&#45;boundary (EachMode fixup)&#45;&gt;[root] output.instance_public_ipv4</title>
<path fill="none" stroke="black" d="M645.32,-504.05C630.7,-494.84 612.44,-483.32 596.66,-473.37"/>
<polygon fill="black" stroke="black" points="598.52,-470.41 588.2,-468.03 594.79,-476.33 598.52,-470.41"/>
</g>
<!-- [root] provider.aws (close) -->
<g id="node28" class="node">
<title>[root] provider.aws (close)</title>
<ellipse fill="none" stroke="black" cx="871.19" cy="-450" rx="104.33" ry="18"/>
<text text-anchor="middle" x="871.19" y="-445.8" font-family="Times,serif" font-size="14.00">[root] provider.aws (close)</text>
</g>
<!-- [root] provider.aws (close)&#45;&gt;[root] aws_iam_role_policy.attach_cw_log_iam_policy_to_role -->
<g id="edge39" class="edge">
<title>[root] provider.aws (close)&#45;&gt;[root] aws_iam_role_policy.attach_cw_log_iam_policy_to_role</title>
<path fill="none" stroke="black" d="M805.62,-436C751.79,-425.32 674.82,-410.06 614.07,-398.01"/>
<polygon fill="black" stroke="black" points="614.57,-394.54 604.08,-396.03 613.21,-401.41 614.57,-394.54"/>
</g>
<!-- [root] provider.aws (close)&#45;&gt;[root] aws_instance.nodejs_instance -->
<g id="edge40" class="edge">
<title>[root] provider.aws (close)&#45;&gt;[root] aws_instance.nodejs_instance</title>
<path fill="none" stroke="black" d="M778.4,-441.69C674.41,-433.05 500.6,-417.29 341.92,-396.19"/>
<polygon fill="black" stroke="black" points="342.35,-392.71 331.97,-394.86 341.42,-399.65 342.35,-392.71"/>
</g>
<!-- [root] provider.aws (close)&#45;&gt;[root] aws_security_group_rule.allow_all_egress -->
<g id="edge41" class="edge">
<title>[root] provider.aws (close)&#45;&gt;[root] aws_security_group_rule.allow_all_egress</title>
<path fill="none" stroke="black" d="M915.08,-433.64C943.84,-423.57 981.76,-410.3 1013.02,-399.36"/>
<polygon fill="black" stroke="black" points="1014.21,-402.65 1022.49,-396.04 1011.9,-396.04 1014.21,-402.65"/>
</g>
<!-- [root] provider.aws (close)&#45;&gt;[root] aws_security_group_rule.allow_http -->
<g id="edge42" class="edge">
<title>[root] provider.aws (close)&#45;&gt;[root] aws_security_group_rule.allow_http</title>
<path fill="none" stroke="black" d="M857.63,-432.05C850.92,-423.67 842.69,-413.38 835.27,-404.1"/>
<polygon fill="black" stroke="black" points="837.99,-401.9 829.01,-396.28 832.52,-406.27 837.99,-401.9"/>
</g>
<!-- [root] provider.aws (close)&#45;&gt;[root] aws_security_group_rule.allow_ssh -->
<g id="edge43" class="edge">
<title>[root] provider.aws (close)&#45;&gt;[root] aws_security_group_rule.allow_ssh</title>
<path fill="none" stroke="black" d="M946.16,-437.44C1016.95,-426.53 1124.24,-409.98 1206.63,-397.28"/>
<polygon fill="black" stroke="black" points="1207.2,-400.73 1216.55,-395.75 1206.13,-393.82 1207.2,-400.73"/>
</g>
<!-- [root] root -->
<g id="node29" class="node">
<title>[root] root</title>
<ellipse fill="none" stroke="black" cx="773.19" cy="-594" rx="46.9" ry="18"/>
<text text-anchor="middle" x="773.19" y="-589.8" font-family="Times,serif" font-size="14.00">[root] root</text>
</g>
<!-- [root] root&#45;&gt;[root] meta.count&#45;boundary (EachMode fixup) -->
<g id="edge47" class="edge">
<title>[root] root&#45;&gt;[root] meta.count&#45;boundary (EachMode fixup)</title>
<path fill="none" stroke="black" d="M751.27,-577.81C737.79,-568.47 720.26,-556.31 705.12,-545.83"/>
<polygon fill="black" stroke="black" points="706.75,-542.7 696.54,-539.88 702.77,-548.45 706.75,-542.7"/>
</g>
<!-- [root] root&#45;&gt;[root] provider.aws (close) -->
<g id="edge48" class="edge">
<title>[root] root&#45;&gt;[root] provider.aws (close)</title>
<path fill="none" stroke="black" d="M804.8,-580.59C822.71,-571.91 843.92,-558.53 856.19,-540 868.25,-521.78 871.62,-497.01 872.19,-478.23"/>
<polygon fill="black" stroke="black" points="875.69,-478.25 872.26,-468.22 868.69,-478.2 875.69,-478.25"/>
</g>
</g>
</svg>
